<mxfile host="app.diagrams.net" modified="2024-02-01T09:08:29.245Z" agent="Mozilla/5.0 (Windows NT 10.0; Win64; x64) AppleWebKit/537.36 (KHTML, like Gecko) Chrome/121.0.0.0 Safari/537.36" etag="uvqS8EIoe3df0JV0ad1Q" version="23.0.2" type="github">
  <diagram name="第 1 页" id="TcVMhdUaZgo2IDLqIPsH">
    <mxGraphModel dx="724" dy="366" grid="1" gridSize="10" guides="1" tooltips="1" connect="1" arrows="1" fold="1" page="1" pageScale="1" pageWidth="827" pageHeight="1169" math="0" shadow="0">
      <root>
        <mxCell id="0" />
        <mxCell id="1" parent="0" />
        <mxCell id="eU-x9zCq4JkFMWarK86F-1" value="Young Gen" style="rounded=0;whiteSpace=wrap;html=1;verticalAlign=top;" vertex="1" parent="1">
          <mxGeometry x="160" y="120" width="420" height="120" as="geometry" />
        </mxCell>
        <mxCell id="eU-x9zCq4JkFMWarK86F-2" value="Old Gen" style="rounded=0;whiteSpace=wrap;html=1;verticalAlign=bottom;" vertex="1" parent="1">
          <mxGeometry x="160" y="240" width="420" height="200" as="geometry" />
        </mxCell>
        <mxCell id="eU-x9zCq4JkFMWarK86F-3" value="Serial" style="rounded=0;whiteSpace=wrap;html=1;" vertex="1" parent="1">
          <mxGeometry x="180" y="160" width="80" height="30" as="geometry" />
        </mxCell>
        <mxCell id="eU-x9zCq4JkFMWarK86F-4" value="ParNew" style="rounded=0;whiteSpace=wrap;html=1;" vertex="1" parent="1">
          <mxGeometry x="300" y="160" width="80" height="30" as="geometry" />
        </mxCell>
        <mxCell id="eU-x9zCq4JkFMWarK86F-5" value="Parallel&amp;nbsp;&lt;br&gt;Scavenge" style="rounded=0;whiteSpace=wrap;html=1;" vertex="1" parent="1">
          <mxGeometry x="414" y="160" width="80" height="30" as="geometry" />
        </mxCell>
        <mxCell id="eU-x9zCq4JkFMWarK86F-31" value="" style="edgeStyle=orthogonalEdgeStyle;rounded=0;orthogonalLoop=1;jettySize=auto;html=1;" edge="1" parent="1" source="eU-x9zCq4JkFMWarK86F-6" target="eU-x9zCq4JkFMWarK86F-7">
          <mxGeometry relative="1" as="geometry" />
        </mxCell>
        <mxCell id="eU-x9zCq4JkFMWarK86F-6" value="CMS" style="rounded=0;whiteSpace=wrap;html=1;" vertex="1" parent="1">
          <mxGeometry x="180" y="330" width="80" height="30" as="geometry" />
        </mxCell>
        <mxCell id="eU-x9zCq4JkFMWarK86F-7" value="Serial Od&lt;br&gt;(MSC)" style="rounded=0;whiteSpace=wrap;html=1;" vertex="1" parent="1">
          <mxGeometry x="300" y="330" width="80" height="30" as="geometry" />
        </mxCell>
        <mxCell id="eU-x9zCq4JkFMWarK86F-8" value="Parallel Old" style="rounded=0;whiteSpace=wrap;html=1;" vertex="1" parent="1">
          <mxGeometry x="414" y="330" width="80" height="30" as="geometry" />
        </mxCell>
        <mxCell id="eU-x9zCq4JkFMWarK86F-9" value="G1" style="rounded=0;whiteSpace=wrap;html=1;" vertex="1" parent="1">
          <mxGeometry x="540" y="210" width="30" height="60" as="geometry" />
        </mxCell>
        <mxCell id="eU-x9zCq4JkFMWarK86F-11" value="" style="endArrow=none;html=1;rounded=0;entryX=0.5;entryY=1;entryDx=0;entryDy=0;" edge="1" parent="1" source="eU-x9zCq4JkFMWarK86F-6" target="eU-x9zCq4JkFMWarK86F-3">
          <mxGeometry width="50" height="50" relative="1" as="geometry">
            <mxPoint x="440" y="300" as="sourcePoint" />
            <mxPoint x="490" y="250" as="targetPoint" />
          </mxGeometry>
        </mxCell>
        <mxCell id="eU-x9zCq4JkFMWarK86F-12" value="" style="endArrow=none;html=1;rounded=0;entryX=0.5;entryY=1;entryDx=0;entryDy=0;exitX=0.5;exitY=0;exitDx=0;exitDy=0;" edge="1" parent="1" source="eU-x9zCq4JkFMWarK86F-7" target="eU-x9zCq4JkFMWarK86F-3">
          <mxGeometry width="50" height="50" relative="1" as="geometry">
            <mxPoint x="440" y="300" as="sourcePoint" />
            <mxPoint x="490" y="250" as="targetPoint" />
          </mxGeometry>
        </mxCell>
        <mxCell id="eU-x9zCq4JkFMWarK86F-15" value="" style="endArrow=none;html=1;rounded=0;entryX=0.5;entryY=1;entryDx=0;entryDy=0;exitX=0.5;exitY=0;exitDx=0;exitDy=0;fillColor=#d5e8d4;strokeColor=#82b366;" edge="1" parent="1" source="eU-x9zCq4JkFMWarK86F-6" target="eU-x9zCq4JkFMWarK86F-4">
          <mxGeometry width="50" height="50" relative="1" as="geometry">
            <mxPoint x="220" y="300" as="sourcePoint" />
            <mxPoint x="490" y="250" as="targetPoint" />
          </mxGeometry>
        </mxCell>
        <mxCell id="eU-x9zCq4JkFMWarK86F-16" value="" style="endArrow=none;html=1;rounded=0;entryX=0.5;entryY=1;entryDx=0;entryDy=0;exitX=0.5;exitY=0;exitDx=0;exitDy=0;" edge="1" parent="1" source="eU-x9zCq4JkFMWarK86F-7" target="eU-x9zCq4JkFMWarK86F-4">
          <mxGeometry width="50" height="50" relative="1" as="geometry">
            <mxPoint x="440" y="300" as="sourcePoint" />
            <mxPoint x="490" y="250" as="targetPoint" />
          </mxGeometry>
        </mxCell>
        <mxCell id="eU-x9zCq4JkFMWarK86F-17" value="" style="endArrow=none;html=1;rounded=0;entryX=0.5;entryY=1;entryDx=0;entryDy=0;exitX=0.5;exitY=0;exitDx=0;exitDy=0;" edge="1" parent="1" source="eU-x9zCq4JkFMWarK86F-7" target="eU-x9zCq4JkFMWarK86F-5">
          <mxGeometry width="50" height="50" relative="1" as="geometry">
            <mxPoint x="440" y="300" as="sourcePoint" />
            <mxPoint x="490" y="250" as="targetPoint" />
          </mxGeometry>
        </mxCell>
        <mxCell id="eU-x9zCq4JkFMWarK86F-18" value="" style="endArrow=none;html=1;rounded=0;entryX=0.5;entryY=1;entryDx=0;entryDy=0;exitX=0.5;exitY=0;exitDx=0;exitDy=0;strokeColor=#3333FF;" edge="1" parent="1" source="eU-x9zCq4JkFMWarK86F-8" target="eU-x9zCq4JkFMWarK86F-5">
          <mxGeometry width="50" height="50" relative="1" as="geometry">
            <mxPoint x="440" y="300" as="sourcePoint" />
            <mxPoint x="490" y="250" as="targetPoint" />
          </mxGeometry>
        </mxCell>
        <mxCell id="eU-x9zCq4JkFMWarK86F-19" value="JDK9 废弃" style="ellipse;shape=cloud;whiteSpace=wrap;html=1;fillColor=#f8cecc;strokeColor=#b85450;" vertex="1" parent="1">
          <mxGeometry x="180" y="240" width="80" height="30" as="geometry" />
        </mxCell>
        <mxCell id="eU-x9zCq4JkFMWarK86F-20" value="JDK9 废弃" style="ellipse;shape=cloud;whiteSpace=wrap;html=1;fillColor=#f8cecc;strokeColor=#b85450;" vertex="1" parent="1">
          <mxGeometry x="300" y="240" width="80" height="30" as="geometry" />
        </mxCell>
        <mxCell id="eU-x9zCq4JkFMWarK86F-21" value="&lt;font style=&quot;font-size: 9px;&quot;&gt;JDK5&lt;/font&gt;" style="text;html=1;strokeColor=#6c8ebf;fillColor=#dae8fc;align=center;verticalAlign=middle;whiteSpace=wrap;rounded=0;" vertex="1" parent="1">
          <mxGeometry x="200" y="360" width="30" height="20" as="geometry" />
        </mxCell>
        <mxCell id="eU-x9zCq4JkFMWarK86F-23" value="&lt;font style=&quot;font-size: 9px;&quot;&gt;JDK1.0&lt;/font&gt;" style="text;html=1;strokeColor=#6c8ebf;fillColor=#dae8fc;align=center;verticalAlign=middle;whiteSpace=wrap;rounded=0;" vertex="1" parent="1">
          <mxGeometry x="205" y="140" width="30" height="20" as="geometry" />
        </mxCell>
        <mxCell id="eU-x9zCq4JkFMWarK86F-25" value="&lt;font style=&quot;font-size: 9px;&quot;&gt;JDK1.3&lt;/font&gt;" style="text;html=1;strokeColor=#6c8ebf;fillColor=#dae8fc;align=center;verticalAlign=middle;whiteSpace=wrap;rounded=0;" vertex="1" parent="1">
          <mxGeometry x="325" y="140" width="30" height="20" as="geometry" />
        </mxCell>
        <mxCell id="eU-x9zCq4JkFMWarK86F-26" value="&lt;font style=&quot;font-size: 9px;&quot;&gt;JDK1.4&lt;/font&gt;" style="text;html=1;strokeColor=#6c8ebf;fillColor=#dae8fc;align=center;verticalAlign=middle;whiteSpace=wrap;rounded=0;" vertex="1" parent="1">
          <mxGeometry x="439" y="140" width="30" height="20" as="geometry" />
        </mxCell>
        <mxCell id="eU-x9zCq4JkFMWarK86F-27" value="&lt;font style=&quot;font-size: 9px;&quot;&gt;JDK6&lt;/font&gt;" style="text;html=1;strokeColor=#6c8ebf;fillColor=#dae8fc;align=center;verticalAlign=middle;whiteSpace=wrap;rounded=0;" vertex="1" parent="1">
          <mxGeometry x="439" y="360" width="30" height="20" as="geometry" />
        </mxCell>
        <mxCell id="eU-x9zCq4JkFMWarK86F-28" value="强调吞吐量" style="text;html=1;strokeColor=#9673a6;fillColor=#e1d5e7;align=center;verticalAlign=middle;whiteSpace=wrap;rounded=0;" vertex="1" parent="1">
          <mxGeometry x="421" y="280" width="66" height="30" as="geometry" />
        </mxCell>
        <mxCell id="eU-x9zCq4JkFMWarK86F-30" value="强调低延时" style="text;html=1;strokeColor=#82b366;fillColor=#d5e8d4;align=center;verticalAlign=middle;whiteSpace=wrap;rounded=0;" vertex="1" parent="1">
          <mxGeometry x="230" y="280" width="66" height="30" as="geometry" />
        </mxCell>
        <mxCell id="eU-x9zCq4JkFMWarK86F-32" value="退化" style="text;html=1;strokeColor=none;fillColor=none;align=center;verticalAlign=middle;whiteSpace=wrap;rounded=0;" vertex="1" parent="1">
          <mxGeometry x="260" y="330" width="30" height="20" as="geometry" />
        </mxCell>
      </root>
    </mxGraphModel>
  </diagram>
</mxfile>
